<svg xmlns="http://www.w3.org/2000/svg" viewBox="0 0 348.39 316.95"><defs><style>.cls-1{fill:#83a92c;}.cls-2{fill:#c64820;}.cls-3{fill:#a83d16;}.cls-4{fill:#df5425;}.cls-5{fill:#63812c;}.cls-6{fill:#c6491f;}.cls-7{fill:#a63a16;}.cls-8{fill:#dad6cd;}.cls-9{fill:#c44621;}.cls-10{fill:#a43c15;}.cls-11{fill:#a53a1a;}.cls-12{fill:#e3b10b;}.cls-13{fill:#2d1f17;}.cls-14{fill:#e3b00b;}.cls-15{fill:#fdfaf2;}.cls-16{fill:#e05a21;}.cls-17{fill:#f2dca4;}.cls-18{fill:#6b0c09;}.cls-19{fill:#feea94;}.cls-20{fill:#86310e;}.cls-21{fill:#71110b;}.cls-22{fill:#c34e1a;}.cls-23{fill:#f7cb00;}.cls-24{fill:#882d0e;}.cls-25{fill:#532d1e;}.cls-26{fill:#c4481f;}.cls-27{fill:#fef5d7;}</style></defs><title>Recurso 1</title><g id="Capa_2" data-name="Capa 2"><g id="Capa_1-2" data-name="Capa 1"><path class="cls-1" d="M118.78,198.2l-10.43-1.58c-5-1.55-4.34,2.41-4.92,5.13l-20.8.35c6-5.82,9.09-13.07,11.68-20.92A43.41,43.41,0,0,1,103,166.86c6.12-7,13-13.31,19.68-19.86a36.75,36.75,0,0,1,3.92-2.94c.42,2.11.72,4.25,1.31,6.31.29,1,1,2.32,1.79,2.58.64.21,2-.77,2.6-1.54,4.82-5.85,10.66-10.44,18.34-10.87,9.44-.53,18.94,0,28.42,0a16.33,16.33,0,0,0,3.05-.56l3.68,2.33c8.24,8.37,16.49,16.71,24.69,25.11a56.58,56.58,0,0,1,3.64,4.6,105.35,105.35,0,0,1-28.66,20.05c-.8.39-1.3,1.37-1.94,2.07l-5.06.26c-8.87-5.1-17.72-10.24-26.64-15.24-1-.59-2.52-.43-3.79-.62l-18.17-19.84a44.23,44.23,0,0,0-1,5.45c-.43,10.78-2.75,20.88-9.71,29.55C118.35,194.69,118.86,196.68,118.78,198.2Z"/><path class="cls-2" d="M41.81,245.46c4.23-7.67,7.79-15.83,12.93-22.83,3.68-5,9.26-8.8,14.39-12.6,3.54-2.63,7.76-4.36,11.67-6.5.46,5,3.44,7.75,9.52,8.71l13.35,2.1c0,2.48-.07,5-.11,7.44-11.38,2.29-20.94,8.11-29.44,15.69-10.63,9.48-21,19.24-31.49,28.88l-.8.76-7,6.26c-.51-.91-1.63-2-1.45-2.71,1.71-6.76,3.64-13.47,5.5-20.2L40,248.37Z"/><path class="cls-3" d="M149.84,22.2c-8.16.07-16.33.44-24.46.09-4.76-.2-8.55,1.14-11.57,4.49-4.41,4.88-10.06,3.4-15.44,3.47-.32,0-.87-.15-.91-.31-1.27-5.75-6-4.31-9.92-5.26s-4.88-6.81-2.48-9.94C88.72,10,92.8,6.59,99.58,7.5c8.53,1.14,17.16,1.48,25.75,2.17A37.06,37.06,0,0,0,146,5a39.61,39.61,0,0,1,5.6-2l1.12-.58L166.55,0,179,0l3.82.58.93.72a2.93,2.93,0,0,1,.89.43,3.3,3.3,0,0,0,.09.63l.15,10.9c-.35,2.7-.7,5.39-1.06,8.09l-1-1c0-8.66,0-8.66-7.05-7.07l-10,1.12-2.89.11c-.73.58-1.46,1.16-2.18,1.75C156.27,16.72,152,17.45,149.84,22.2Z"/><path class="cls-4" d="M229.59,203.46a10.22,10.22,0,0,1-9.4,13.82c-11,.16-21.95.05-32.93.06-17.79,0-35.58-.06-53.37,0-2.86,0-5.72.72-9.41,1.22-.76-.83-2.28-2.32-3.58-4-2.67-3.42-3.25-6.83.26-10.18a16.5,16.5,0,0,0,2-2.79l1.68.65h26.92c1,.67,1.9,1.93,2.86,1.94,16.11.1,32.21,0,48.32.07A54.85,54.85,0,0,1,211,205c4.2.66,8.38,1.52,12.55,2.34C226.86,208,228.84,206.71,229.59,203.46Z"/><path class="cls-2" d="M183.83,21.37l1-8.09c3.47.05,6.93.15,10.4.11,1.6,0,3.2-.33,4.8-.5l2.71.73.84.76,1.21.45a1.39,1.39,0,0,0,.77.52c.73.42,1.46.84,2.2,1.25l.88.73,2.09,1.13L213,20.23a1.84,1.84,0,0,1,.85.26l1,.82,3,2.23.8.79,3.21,4q1.5,9.56,3,19.11l-7.24,5.16-11.35,5.88L203.09,54c-1.5-1.88-3-3.77-4.48-5.65l-.84-.73c-9-5.85-14.16-13.91-14-24.92C183.76,22.27,183.79,21.82,183.83,21.37Z"/><path class="cls-5" d="M182.08,140a16.33,16.33,0,0,1-3.05.56c-9.48,0-19-.55-28.42,0-7.68.43-13.52,5-18.34,10.87-.63.77-2,1.75-2.6,1.54-.81-.26-1.5-1.58-1.79-2.58-.59-2.06-.89-4.2-1.31-6.31l.63-1.75.52-.95c.15-.71.3-1.41.44-2.11l.54-1.89c.17-1,.35-2.08.52-3.12.18-.59.37-1.19.56-1.78,4.9-13.94,16.95-22.34,32.45-22.64a.59.59,0,0,0,.41.43l-.33,2c.14,1,.29,2,.44,3.08,3.38,4.59,6.67,9.26,10.18,13.76C175.85,132.84,179,136.38,182.08,140Z"/><path class="cls-6" d="M255.82,106.35a31.81,31.81,0,0,0,5,1.94,19.3,19.3,0,0,1,14.93,16.51c.17,1.39,1.33,2.65,2,4-5,5.15-6.42,11.19-4.41,18l6.24,1.32c-6,1.94-11.4.94-15.93-3.37-8.3-7.87-16.41-15.93-24.65-23.86-1.54-1.48-3.33-2.7-5-4.06s-4.36-2.56-5-4.38c-1.32-3.87,1.44-6.35,4.6-8.2.17.8.06,1.89.54,2.34C237.1,109.22,252.44,109,255.82,106.35Z"/><path class="cls-7" d="M279.65,148.12l-6.24-1.32c-2-6.84-.63-12.88,4.41-18,3.48-3.26,7.29-5.67,12.37-5.26,8.4.68,15.11-2.73,20.72-8.74,2-2.17,4.11-4.29,6.16-6.42l1.45-2.38c0-1.53,0-3.06,0-4.6.63-.08,1.6-.45,1.83-.19,1.83,2.11,3.54,4.31,5.22,6.53,1.55,2,3,4.14,4.52,6.21L328,115.48l-1.13.62-1,.3-1,.8c-6.72,6.5-13.38,13.06-20.19,19.47a41.31,41.31,0,0,1-5.62,3.8l-1.14.69a1.84,1.84,0,0,1-.94.28l-1.07.79-2.9,1.22-1.09.64-1,.32-1,.76a1.48,1.48,0,0,1-.91.27c-.35.2-.71.39-1.07.58Z"/><path class="cls-8" d="M237.58,73.31c-.53,12.49-6.83,22.16-16.06,29.65-5.57,4.51-12.51,7.31-18.83,10.89l-1-.69c1.44-7.68-4.17-11.57-8.65-16.07l.18-1.54c5.94-5.37,9.22-12.19,11.09-19.86a38,38,0,0,1,2.12-5.3c4.67,13,21,15.92,28.87,4.85A11.73,11.73,0,0,1,237.58,73.31Z"/><path class="cls-9" d="M229.59,203.46c-.75,3.25-2.73,4.54-6,3.89-4.17-.82-8.35-1.68-12.55-2.34a54.85,54.85,0,0,0-8.09-.68c-16.11,0-32.21,0-48.32-.07-1,0-1.9-1.27-2.86-1.94l1.93-.11,3-.67,7-1.24c1.47.69,2.93,1.94,4.41,2,10.29.17,20.58.1,30.87,0a41.76,41.76,0,0,0,5-.77,45.28,45.28,0,0,0-20.42-7.39c.65-.7,1.15-1.68,2-2.07A105.35,105.35,0,0,0,214.09,172c5.67,3.48,8.67,8.05,9.1,15.18.28,4.52,3.64,8.84,5.62,13.26a1.29,1.29,0,0,0,.56.79Z"/><path class="cls-10" d="M254.42,80.58l-2.66-2.21c1.81-7.15-.36-11.52-7-13.38a47,47,0,0,0,.1,7.43c.28,1.81,1.43,3.48,2.19,5.22l-3.53,3.91c-1.76-11.1.13-20.63,1.53-30.17,4.84-.35,9.51-1,10.9-6.83,5.51-1.8,5.81-1.55,7.59,6.74h4.21c.57.7,1,1.8,1.75,2,4.4,1.45,8.87,2.71,13.32,4l.21,3.4-3.22,3.62-6.3-6c-1.89,5.08-.7,8.06,4.49,9,0,1.63.05,3.26.07,4.9L274.92,74l-2.17,0c-4-4.69-9.46-4.49-10.69.78C261,79.37,258.3,80.39,254.42,80.58Z"/><path class="cls-11" d="M237.58,73.31a11.73,11.73,0,0,0-2.25,1.93c-7.82,11.07-24.2,8.16-28.87-4.85L206,64.28c5.19,1.18,11.88-5.58,11.58-11.68l7.24-5.17,1.88,0,2.15,1.82,9.45,8.17c0,3.92-.09,7.85-.14,11.77-.17.7-.35,1.4-.53,2.1Z"/><path class="cls-12" d="M201.72,113.16l1,.69c-.88,5.33-1.38,10.76-2.74,16-1.45,5.57-4.5,9.87-11.33,9.68-.93,0-1.91,1.84-2.86,2.83L182.08,140c-3.06-3.62-6.23-7.16-9.15-10.89-3.51-4.5-6.8-9.17-10.18-13.76l1.18-.66h27.81l4.91-.65Z"/><path class="cls-5" d="M124.82,202.32l-1.68-.65c-.8-.86-1.61-1.72-2.42-2.57l-1.77-.79-.17-.11c.08-1.52-.43-3.51.35-4.48,7-8.67,9.28-18.77,9.71-29.55a44.23,44.23,0,0,1,1-5.45L148,178.56Z"/><path class="cls-13" d="M256,44.55c-1.39,5.85-6.06,6.48-10.9,6.83-1.4-11.72,5.21-21.31,17-24.66,10-2.84,20.51,2.17,24.89,12.45,1.11,2.59.31,6,.38,9a.41.41,0,0,0-.57.11l-7-8c-1.39-1.56-2.69-3.21-4.18-4.65-3.75-3.61-9.21-4.69-13.73-2.17C257.76,35.82,255.1,39.36,256,44.55Z"/><path class="cls-14" d="M206,64.28l.48,6.11a38,38,0,0,0-2.12,5.3c-1.87,7.67-5.15,14.49-11.09,19.86a11.89,11.89,0,0,1-2.45-2.34c-4.29-7.4-2.22-21.72,3.61-28.07,3.17-3.45,5.8-7.39,8.67-11.12,1,1.48,2.09,3,3.13,4.45Q206.09,61.36,206,64.28Z"/><path class="cls-15" d="M191.74,114.7H163.93l-1.62-2.42.33-2,4.11-.75a51.41,51.41,0,0,0,26.32-12.41c4.48,4.5,10.09,8.39,8.65,16.07l-5.07.89Z"/><path class="cls-4" d="M38.83,250.46c-1.86,6.73-3.79,13.44-5.5,20.2-.18.74.94,1.8,1.45,2.71L22.63,286.66c-2.91-3.73-5.73-6.14-6.8-9.16-.75-2.11.11-6.68,1.6-7.4C26.61,265.63,32.44,257.8,38.83,250.46Z"/><path class="cls-3" d="M255.82,106.35c-3.38,2.61-18.72,2.87-21.58.24-.48-.45-.37-1.54-.54-2.34,1.9-2.27,4.17-4.35,5.62-6.88,1.86-3.25,3.06-6.88,4.56-10.39,5.1,1.47,10.42,8.53,11.08,15.09.17.4.34.79.52,1.19C255.59,104.29,255.7,105.32,255.82,106.35Z"/><path class="cls-16" d="M327.75,88.2l4.77,1.71a33.77,33.77,0,0,0,3.25-3.85c2.45-3.82,5.94-2.53,8.83-1.42,1.47.57,2.59,3,3.13,4.82,2.12,7.12-1,12.14-7,15.79-.48-1.22-.63-2.77-1.49-3.62-2.46-2.43-4.94-5.13-8-6.57-1.31-.63-3.95,1.65-6,2.47a19.17,19.17,0,0,1-3.41.6Z"/><path class="cls-6" d="M327.75,88.2l-5.88,9.93a19.17,19.17,0,0,0,3.41-.6c2.09-.82,4.73-3.1,6-2.47,3,1.44,5.5,4.14,8,6.57.86.85,1,2.4,1.49,3.62l-.07.09-.91.92-.09.09-.91.91-.09.09-.89.91-4.13,4.11-.87.79-2.68.75c-1.5-2.06-3-4.16-4.52-6.2-1.68-2.22-3.39-4.42-5.22-6.53-.23-.26-1.2.11-1.83.19C317.45,96.15,321.63,90.15,327.75,88.2Z"/><path class="cls-17" d="M103.56,221.78c0-2.48.07-5,.11-7.44l-.24-12.59c.58-2.72-.11-6.68,4.92-5.13.05,16.81.16,33.62,0,50.43,0,1.35-1.64,2.69-2.52,4-.67-1.28-1.88-2.55-1.92-3.86C103.68,238.74,103.66,230.26,103.56,221.78Z"/><path class="cls-18" d="M175.78,13.26c7-1.59,7-1.59,7.05,7.07,0,.63-.05,1.25-.07,1.88H149.84c2.12-4.75,6.43-5.48,10.88-6l2.18-1.75,2.89-.11Z"/><path class="cls-19" d="M4.67,289.33c0,7.83.12,15.65-.11,23.47,0,1.41-1.53,2.77-2.35,4.15-.73-1.34-2.09-2.68-2.1-4q-.22-23.71,0-47.43c0-1.29,1.41-2.56,2.16-3.84.8,1.41,2.24,2.8,2.28,4.23C4.78,273.69,4.66,281.51,4.67,289.33ZM2,313.27l.55,0V264.29H2Z"/><path class="cls-20" d="M103.43,201.75l.24,12.59-13.35-2.1c-6.08-1-9.06-3.69-9.52-8.71l1.83-1.43Z"/><path class="cls-16" d="M238.28,57.46l-9.45-8.17-2.15-1.82-1.88,0q-1.49-9.55-3-19.11c3,7.78,8.23,13.58,14.6,18.9C238.47,48.93,237.74,54,238.28,57.46Z"/><path class="cls-4" d="M200.08,12.89c-1.6.17-3.2.48-4.8.5-3.47,0-6.93-.06-10.4-.11q-.07-5.44-.14-10.9h.45l.46,0,1.07.41c-.17,1-.35,2.06-.58,3.35l5.47.26.16.1.94.84,1.17.4a1.71,1.71,0,0,0,.71.62l.18.15.89.84,1.25.47a1.77,1.77,0,0,0,.62.53l2.23,1.39a5.19,5.19,0,0,0,.12.79Z"/><path class="cls-21" d="M247.05,77.64c-.76-1.74-1.91-3.41-2.19-5.22a47,47,0,0,1-.1-7.43c6.64,1.86,8.81,6.23,7,13.38Z"/><path class="cls-22" d="M254.42,80.58c3.88-.19,6.56-1.21,7.64-5.83,1.23-5.27,6.65-5.47,10.69-.78-4.86,2.52-9.68,5.16-14.64,7.46C257.2,81.85,255.66,80.9,254.42,80.58Z"/><path class="cls-22" d="M278,67.4c-5.19-.91-6.38-3.89-4.49-9l6.3,6C279.21,65.39,278.6,66.39,278,67.4Z"/><path class="cls-16" d="M179,0,166.55,0Z"/><path class="cls-22" d="M286.75,48.3a.41.41,0,0,1,.57-.11l-2.43,10.26-.18-.2Z"/><path class="cls-16" d="M191.61,6.41l-5.47-.26c.23-1.29.41-2.32.58-3.35Z"/><path class="cls-22" d="M274.92,74l3.15-1.71-.89,2.58Z"/><path class="cls-8" d="M166.75,109.5l-4.11.75a.59.59,0,0,1-.41-.43Z"/><path class="cls-22" d="M283,60.77l-.21-3.4,1.89.88.18.2Z"/><path class="cls-4" d="M41.81,245.46,40,248.37Z"/><path class="cls-16" d="M237.61,71.33c.18-.7.36-1.4.53-2.1C238,69.93,237.79,70.63,237.61,71.33Z"/><path class="cls-6" d="M318.52,106l-1.45,2.38C317.55,107.55,318,106.76,318.52,106Z"/><path class="cls-16" d="M213,20.23l-2.18-1.77Z"/><path class="cls-1" d="M129.78,132.46c-.19.59-.38,1.19-.56,1.78C129.41,133.64,129.59,133.05,129.78,132.46Z"/><path class="cls-1" d="M128.7,137.36l-.54,1.89Z"/><path class="cls-20" d="M182.76,22.21c0-.63.05-1.25.07-1.88l1,1-.09,1.35Z"/><path class="cls-1" d="M119,198.31l1.77.79Z"/><path class="cls-16" d="M337.81,108.26l.89-.91Z"/><path class="cls-16" d="M218.61,24.33l-.8-.79Z"/><path class="cls-16" d="M332.81,113.16l.87-.79Z"/><path class="cls-16" d="M214.81,21.31l-1-.82Z"/><path class="cls-6" d="M326.84,116.1l1.13-.62Z"/><path class="cls-6" d="M324.79,117.2l1-.8Z"/><path class="cls-16" d="M195.66,9.36l-.89-.84Z"/><path class="cls-6" d="M297.84,141.16l1.14-.69Z"/><path class="cls-1" d="M127.72,141.36l-.52.95Z"/><path class="cls-6" d="M295.83,142.23l1.07-.79Z"/><path class="cls-6" d="M291.84,144.09l1.09-.64Z"/><path class="cls-6" d="M289.83,145.17l1-.76Z"/><path class="cls-6" d="M287.85,146c.36-.19.72-.38,1.07-.58C288.57,145.64,288.21,145.83,287.85,146Z"/><path class="cls-16" d="M185.65,2.39l-.46,0h-.45a2.67,2.67,0,0,1-.1-.63Z"/><path class="cls-16" d="M208.69,17.33l-.88-.73Z"/><path class="cls-16" d="M205.61,15.35a1.39,1.39,0,0,1-.77-.52Z"/><path class="cls-16" d="M152.7,2.45,151.58,3Z"/><path class="cls-6" d="M255.48,103.26c-.18-.4-.35-.79-.52-1.19C255.13,102.47,255.3,102.86,255.48,103.26Z"/><path class="cls-16" d="M339.79,106.26l.91-.92Z"/><path class="cls-4" d="M229.37,201.27a1.29,1.29,0,0,1-.56-.79C229,200.74,229.19,201,229.37,201.27Z"/><path class="cls-16" d="M203.63,14.38l-.84-.76Z"/><path class="cls-14" d="M197.77,47.64l.84.73Z"/><path class="cls-16" d="M199.88,12.54a5.19,5.19,0,0,1-.12-.79,3.21,3.21,0,0,1,.42.49S200,12.43,199.88,12.54Z"/><path class="cls-16" d="M197.53,10.36a1.77,1.77,0,0,1-.62-.53Z"/><path class="cls-16" d="M183.75,1.32,182.82.6Z"/><path class="cls-16" d="M194.59,8.37a1.71,1.71,0,0,1-.71-.62Z"/><path class="cls-16" d="M192.71,7.35l-.94-.84Z"/><path class="cls-16" d="M338.79,107.26l.91-.91Z"/><path class="cls-4" d="M41.83,267.11l.8-.76Z"/><path class="cls-23" d="M124.82,202.32,148,178.56c1.28.19,2.75,0,3.8.62,8.92,5,17.77,10.14,26.64,15.24-1.05.93-2,2.32-3.18,2.72-3.81,1.26-7.75,2.14-11.63,3.16l-7,1.23-3,.68-1.93.11Z"/><path class="cls-24" d="M163.62,200.3c3.88-1,7.82-1.9,11.63-3.16,1.23-.4,2.13-1.79,3.18-2.72l5.06-.26a45.28,45.28,0,0,1,20.41,7.39,41.76,41.76,0,0,1-5,.77c-10.29.05-20.58.12-30.87,0C166.55,202.24,165.09,201,163.62,200.3Z"/><path class="cls-24" d="M175.78,13.26l-10,1.12Z"/><path class="cls-24" d="M162.9,14.49l-2.18,1.75C161.44,15.65,162.17,15.07,162.9,14.49Z"/><path class="cls-21" d="M206,64.28q.11-2.91.23-5.81l11.35-5.88C217.86,58.7,211.17,65.46,206,64.28Z"/><path class="cls-8" d="M162.31,112.27l1.62,2.42-1.18.66C162.6,114.32,162.45,113.3,162.31,112.27Z"/><path class="cls-4" d="M153.67,202.21l3-.68Z"/><path class="cls-25" d="M256,44.55c-.85-5.19,1.81-8.73,5.93-11,4.52-2.52,10-1.44,13.73,2.17,1.49,1.44,2.79,3.09,4.18,4.65-1.09.84-2.26,1.6-3.26,2.53-3,2.77-5.86,5.61-8.78,8.42h-4.21C261.76,43,261.46,42.75,256,44.55Z"/><path class="cls-26" d="M267.75,51.29c2.92-2.81,5.82-5.65,8.78-8.42,1-.93,2.17-1.69,3.26-2.53l7,8-2,10-1.89-.88c-4.45-1.33-8.92-2.59-13.32-4C268.77,53.09,268.32,52,267.75,51.29Z"/><path class="cls-2" d="M226.68,47.47l2.15,1.82Z"/><path class="cls-8" d="M191.74,114.7l4.91-.65Z"/><path class="cls-27" d="M2,313.27v-49h.55v48.94Z"/></g></g></svg>